<?xml version="1.0" encoding="UTF-8" standalone="no"?>
<svg
   xmlns:dc="http://purl.org/dc/elements/1.1/"
   xmlns:cc="http://creativecommons.org/ns#"
   xmlns:rdf="http://www.w3.org/1999/02/22-rdf-syntax-ns#"
   xmlns:svg="http://www.w3.org/2000/svg"
   xmlns="http://www.w3.org/2000/svg"
   xmlns:sodipodi="http://sodipodi.sourceforge.net/DTD/sodipodi-0.dtd"
   xmlns:inkscape="http://www.inkscape.org/namespaces/inkscape"
   width="650"
   height="650"
   id="svg2997"
   version="1.1"
   inkscape:version="0.48.2 r9819"
   sodipodi:docname="knife.svg">
  <title
     id="title3860">PEP Tools</title>
  <defs
     id="defs3007" />
  <sodipodi:namedview
     pagecolor="#ffffff"
     bordercolor="#666666"
     borderopacity="1"
     objecttolerance="10"
     gridtolerance="10"
     guidetolerance="10"
     inkscape:pageopacity="0"
     inkscape:pageshadow="2"
     inkscape:window-width="1366"
     inkscape:window-height="706"
     id="namedview3005"
     showgrid="false"
     inkscape:zoom="0.13098689"
     inkscape:cx="-1624.2439"
     inkscape:cy="1038.5068"
     inkscape:window-x="-8"
     inkscape:window-y="-8"
     inkscape:window-maximized="1"
     inkscape:current-layer="svg2997" />
  <metadata
     id="metadata2479">image/svg+xml<rdf:RDF>
  <cc:Work
     rdf:about="">
    <dc:format>image/svg+xml</dc:format>
    <dc:type
       rdf:resource="http://purl.org/dc/dcmitype/StillImage" />
    <dc:title>PEP Tools</dc:title>
  </cc:Work>
</rdf:RDF>
</metadata>
  <path
     style="fill:#b5b3b4;fill-opacity:1;stroke:#000000;stroke-width:7.377;stroke-miterlimit:4;stroke-opacity:1;stroke-dasharray:none"
     inkscape:connector-curvature="0"
     d="m 451.72119,278.9464 c 0.0232,0.20458 -0.15011,0.3003 -0.46972,0.36876 -0.54634,0.11703 -8.4271,-1.73129 -17.5107,-4.10688 -29.47083,-7.70738 -26.74924,-6.78203 -43.35171,-14.72138 -46.96685,-22.45966 -127.2136,-59.46045 -129.46895,-59.65284 -5.74091,-12.29704 -3.67652,-7.95867 -6.77989,-15.26524 1.90703,1.01537 1.22215,1.5778 2.95254,-1.22243 0.76033,-1.23051 1.47236,-2.19253 1.59429,-2.14121 0.12203,0.0514 9.33891,3.92152 20.46598,8.59471 20.86719,8.7638 55.57326,23.67451 79.06029,33.97258 21.77166,10.39514 74.16102,35.08659 91.55961,51.87327 1.32086,1.31841 1.90954,1.95971 1.94826,2.30066 z"
     id="path2598-1-7"
     sodipodi:nodetypes="csssccscsccc"
     inkscape:transform-center-y="-10.451565"
     inkscape:transform-center-x="5.8827924" />
  <path
     style="fill:#b5b3b4;fill-opacity:1;stroke:#000000;stroke-width:10.077;stroke-miterlimit:4;stroke-opacity:1;stroke-dasharray:none"
     inkscape:connector-curvature="0"
     d="m 372.16444,349.16215 c -0.42771,-0.2421 -0.95575,-0.2865 -1.68161,-0.24507 -1.24075,0.0708 -11.03133,5.12562 -21.75404,11.23169 -34.78875,19.81052 -32.06575,17.73739 -43.41645,33.00156 -32.10999,43.18092 -90.12142,115.39233 -93.69495,116.45499 17.97433,16.17471 11.70244,10.4537 22.93006,19.94924 1.06665,-1.8713 -1.44193,-2.25686 8.05835,0.29071 4.17462,1.11951 7.64767,1.95078 7.74706,1.84664 0.0993,-0.10427 7.63284,-7.9651 16.72536,-17.45623 17.05182,-17.79912 44.64449,-47.78442 62.84225,-68.31327 14.92166,-19.99828 51.56712,-67.75249 44.05069,-93.4073 -0.67155,-1.99784 -1.09391,-2.94951 -1.80672,-3.35296 z"
     id="path2598-1"
     sodipodi:nodetypes="csssccscsccc"
     inkscape:transform-center-y="13.360116" />
  <path
     style="fill:#b5b3b4;fill-opacity:1;stroke:#000000;stroke-width:10.09;stroke-miterlimit:4;stroke-opacity:1;stroke-dasharray:none"
     inkscape:connector-curvature="0"
     d="m 508.41667,440.91272 c -0.50221,-0.43718 -1.25679,-0.69564 -2.34822,-0.93772 -1.86565,-0.4138 -18.96451,1.28974 -37.9927,3.78536 -61.73505,8.09681 -56.62663,6.88561 -81.42249,19.25298 -70.1451,34.98616 -193.80515,91.78273 -199.6325,91.53993 17.93222,25.00303 11.71578,16.1934 23.23855,31.13962 2.56114,-1.64501 -0.93132,-3.06593 11.72002,3.51696 5.55925,2.89272 10.23715,5.18868 10.43867,5.11301 0.20145,-0.0759 15.45831,-5.77543 33.87431,-12.65844 34.53667,-12.90789 91.04843,-35.10277 128.71695,-50.5729 32.56076,-16.18298 111.80688,-54.42453 114.29667,-85.75689 0.0668,-2.47419 -0.0522,-3.69339 -0.88926,-4.42191 z"
     id="path2598"
     sodipodi:nodetypes="csssccscsccc" />
  <g
     id="Layer_x0020_2"
     style="fill-rule:nonzero;stroke:#000000;stroke-miterlimit:4"
     transform="matrix(-1.5087005,-1.7518103,-1.8359316,1.6231366,518.33985,368.86194)">
		<path
   inkscape:connector-curvature="0"
   style="fill:#ff0000;stroke-width:5"
   d="m 158.34,44.334 c 0,0 2.264,9.58 2.172,15.076 -0.092,5.496 -0.265,6.14 -2.352,10.067 -2.087,3.927 -0.863,3.219 -3.744,6.243 -2.881,3.024 -2.967,3.346 -9.027,7.934 -5.263,3.984 -11.128,8.197 -13.283,10.934 -1.57,1.995 -10.764,5.398 -15.427,8.635 -4.664,3.237 -15.324,12.113 -19.17,14.878 -3.847,2.767 -23.201,9.313 -27.715,13.279 -4.514,3.967 -11.241,9.757 -15.261,13.166 -4.02,3.41 -19.446,12.044 -24.173,14.229 -4.727,2.186 -25.356,-1.961 -26.771,-4.411 -1.414,-2.449 -2.007,-5.287 1.294,-4.829 2.662,0.367 3.737,-1.069 7.153,-2.225 3.415,-1.155 10.638,-7.503 16.658,-14.518 6.021,-7.015 12.99,-17.57 16.86,-21.71 3.871,-4.14 5.894,-9.119 13.03,-15.144 7.136,-6.025 6.429,-7.25 11.586,-11.044 4.841,-3.561 8.597,-6.323 13.197,-10.613 4.6,-4.289 8.188,-6.088 10.879,-12.269 2.798,-6.425 5.21,-11.716 11.23,-18.73 6.02,-7.014 7.763,-9.654 12.576,-12.161 4.813,-2.506 13.597,-5.672 17.312,-5.368 3.715,0.305 4.916,0.972 8.027,3.531 3.11,2.56 0.581,-0.879 1.713,3.91 1.132,4.79 0.402,4.939 4.564,7.435 4.163,2.496 8.67,3.704 8.67,3.704 z"
   id="path1933" />

	</g>
  <g
     id="Layer_x0020_3"
     style="fill-rule:nonzero;stroke:#000000;stroke-miterlimit:4"
     transform="matrix(-1.5087005,-1.7518103,-1.8359316,1.6231366,518.33985,368.86194)">
		<path
   inkscape:connector-curvature="0"
   style="fill:#99ff66;stroke-width:4"
   d="m 145.088,29.395 c 0,0 -0.265,6.141 1.793,8.763 2.058,2.622 4.869,3.72 8.497,4.347 3.628,0.627 4.335,1.852 5.089,0.328 0.753,-1.523 -2.828,-4.899 2.738,-8.929 5.565,-4.03 10.269,-4.84 12.787,-10.377 2.071,-4.551 3.187,-6.739 1.497,-12.022 C 175.405,4.99 169.082,1.661 165.196,2 c -3.886,0.338 -3.243,0.511 -3.502,1.477 -0.259,0.966 -0.626,3.628 0.661,3.973 1.288,0.345 2.34,0.282 4.461,3.956 2.122,3.674 4.031,5.566 0.805,9.878 -3.226,4.312 -4.709,5.985 -10.229,7.267 -4.914,1.141 -12.305,0.844 -12.305,0.844 z"
   id="path1936" />

	</g>
</svg>
